<?xml version="1.0" encoding="UTF-8"?>
<svg viewBox="0 0 200 400" xmlns="http://www.w3.org/2000/svg">
  <!-- Schulter & Nacken -->
  <g id="trapezius">
    <path d="M60 65 C70 50 130 50 140 65 L140 80 L60 80 Z" fill="#8E44AD"/>
  </g>
  <g id="posterior_deltoid">
    <path d="M45 80 C55 70 65 70 75 80 C65 90 55 90 45 80 Z" fill="#9B59B6"/>
    <path d="M155 80 C145 70 135 70 125 80 C135 90 145 90 155 80 Z" fill="#9B59B6"/>
  </g>
  <g id="lateral_deltoid">
    <path d="M25 80 C30 70 40 70 45 80 C40 90 30 90 25 80 Z" fill="#3498DB"/>
    <path d="M175 80 C170 70 160 70 155 80 C160 90 170 90 175 80 Z" fill="#3498DB"/>
  </g>
  <g id="anterior_deltoid">
    <path d="M70 40 L130 40 L130 50 L70 50 Z" fill="#2980B9"/>
  </g>

  <!-- Rücken -->
  <g id="latissimus_dorsi">
    <path d="M50 140 C55 130 65 130 70 140 L70 190 C65 200 55 200 50 190 Z" fill="#16A085"/>
    <path d="M150 140 C145 130 135 130 130 140 L130 190 C135 200 145 200 150 190 Z" fill="#16A085"/>
  </g>
  <g id="lower_back">
    <path d="M85 190 C95 180 105 180 115 190 L110 230 C100 235 90 235 85 230 Z" fill="#D35400"/>
  </g>
  <g id="rhomboids">
    <path d="M85 100 C90 95 110 95 115 100 L110 130 C100 135 90 135 85 130 Z" fill="#8E44AD"/>
  </g>
  <g id="pectoral">
    <path d="M60 100 C70 90 130 90 140 100 L135 130 C125 135 75 135 65 130 Z" fill="#E74C3C"/>
  </g>

  <!-- Arme -->
  <g id="triceps">
    <path d="M20 100 C25 95 35 95 40 100 L40 140 C35 145 25 145 20 140 Z" fill="#F1C40F"/>
    <path d="M160 100 C165 95 175 95 180 100 L180 140 C175 145 165 145 160 140 Z" fill="#F1C40F"/>
  </g>
  <g id="biceps">
    <path d="M15 100 C20 95 25 95 30 100 L30 140 C25 145 20 145 15 140 Z" fill="#27AE60"/>
    <path d="M185 100 C180 95 175 95 170 100 L170 140 C175 145 180 145 185 140 Z" fill="#27AE60"/>
  </g>
  <g id="forearm">
    <path d="M20 140 C25 135 35 135 40 140 L40 200 C35 205 25 205 20 200 Z" fill="#E67E22"/>
    <path d="M160 140 C165 135 175 135 180 140 L180 200 C175 205 165 205 160 200 Z" fill="#E67E22"/>
  </g>

  <!-- Core -->
  <g id="abs">
    <path d="M70 140 C80 135 120 135 130 140 L125 200 C115 205 85 205 75 200 Z" fill="#F39C12"/>
  </g>

  <!-- Gesäß -->
  <g id="gluteus">
    <path d="M75 220 C85 210 115 210 125 220 L130 250 C120 255 80 255 70 250 Z" fill="#9B59B6"/>
  </g>

  <!-- Beine -->
  <g id="hamstrings">
    <path d="M60 220 C65 215 75 215 80 220 L85 280 C80 285 70 285 65 280 Z" fill="#27AE60"/>
    <path d="M140 220 C135 215 125 215 120 220 L115 280 C120 285 130 285 135 280 Z" fill="#27AE60"/>
  </g>
  <g id="quadriceps">
    <path d="M65 220 C70 215 80 215 85 220 L90 280 C85 285 75 285 70 280 Z" fill="#2ECC71"/>
    <path d="M135 220 C130 215 120 215 115 220 L110 280 C115 285 125 285 130 280 Z" fill="#2ECC71"/>
  </g>
  <g id="adductors">
    <path d="M70 220 C72 215 78 215 80 220 L82 280 C78 282 72 282 70 280 Z" fill="#D35400"/>
    <path d="M130 220 C128 215 122 215 120 220 L118 280 C122 282 128 282 130 280 Z" fill="#D35400"/>
  </g>
  <g id="abductors">
    <path d="M55 220 C58 215 62 215 65 220 L67 280 C64 282 58 282 55 280 Z" fill="#1ABC9C"/>
    <path d="M145 220 C142 215 138 215 135 220 L133 280 C136 282 142 282 145 280 Z" fill="#1ABC9C"/>
  </g>

  <!-- Unterschenkel -->
  <g id="calves">
    <path d="M65 280 C68 275 72 275 75 280 L75 330 C72 335 68 335 65 330 Z" fill="#3498DB"/>
    <path d="M135 280 C132 275 128 275 125 280 L125 330 C128 335 132 335 135 330 Z" fill="#3498DB"/>
  </g>

  <!-- Füße -->
  <g id="feet">
    <path d="M60 330 L80 330 L75 340 L55 340 Z" fill="#95A5A6"/>
    <path d="M120 330 L140 330 L145 340 L125 340 Z" fill="#95A5A6"/>
  </g>
</svg>
