<?xml version="1.0" encoding="UTF-8"?>
<!--
  Optimised SVG silhouette for the muscle heatmap. This graphic consists of
  multiple path elements, each with its own id corresponding to a muscle
  region. You can recolour each region programmatically via the
  SvgMuscleHeatmapWidget by matching the ids. The design loosely
  approximates the proportions of the mock-up while keeping the vectors
  simple enough to edit.
-->
<svg viewBox="0 0 200 400" xmlns="http://www.w3.org/2000/svg" stroke="none">
  <!-- Head -->
  <circle id="head" cx="100" cy="40" r="28" fill="#00BCD4" />

  <!-- Shoulders and chest (upper torso) -->
  <path id="chest" fill="#00BCD4" d="M40 70 C 55 50, 145 50, 160 70 L160 120 L40 120 Z" />

  <!-- Upper arms (left and right) -->
  <path id="upper_arm_left" fill="#00E676" d="M20 90 L35 90 C40 120, 40 150, 35 180 L20 180 Z" />
  <path id="upper_arm_right" fill="#00E676" d="M180 90 L165 90 C160 120, 160 150, 165 180 L180 180 Z" />

  <!-- Forearms (left and right) -->
  <path id="forearm_left" fill="#00E676" d="M20 180 L30 180 C35 220, 35 260, 30 300 L20 300 Z" />
  <path id="forearm_right" fill="#00E676" d="M180 180 L170 180 C165 220, 165 260, 170 300 L180 300 Z" />

  <!-- Core / abs -->
  <path id="core" fill="#00BCD4" d="M60 120 L140 120 L140 200 L60 200 Z" />

  <!-- Pelvis/hip -->
  <path id="pelvis" fill="#00BCD4" d="M70 200 L130 200 L140 240 L60 240 Z" />

  <!-- Thighs (left and right) -->
  <path id="thigh_left" fill="#FFC107" d="M60 240 L85 240 C90 300, 90 350, 80 380 L60 380 Z" />
  <path id="thigh_right" fill="#FFC107" d="M140 240 L115 240 C110 300, 110 350, 120 380 L140 380 Z" />

  <!-- Calves (left and right) -->
  <path id="calf_left" fill="#FFC107" d="M65 380 L75 380 C78 390, 78 400, 70 400 L60 400 Z" />
  <path id="calf_right" fill="#FFC107" d="M135 380 L125 380 C122 390, 122 400, 130 400 L140 400 Z" />

  <!-- Feet (left and right) -->
  <path id="foot_left" fill="#00BCD4" d="M58 400 L82 400 L82 408 L58 408 Z" />
  <path id="foot_right" fill="#00BCD4" d="M142 400 L118 400 L118 408 L142 408 Z" />
</svg>
